<?xml version="1.0" encoding="iso-8859-1"?>
<svg version="1.1" xmlns="http://www.w3.org/2000/svg" xmlns:xlink="http://www.w3.org/1999/xlink" x="0px" y="0px"
	 viewBox="0 0 512 512"  xml:space="preserve">
<circle cx="256" cy="256" r="255" fill="black" stroke="black" stroke-width="1px" />
<g transform="translate(0, 17)">
  <g transform="scale(0.8) translate(223, 69)">
    <path fill="white" d="M25.26 25.199l13.6 272C39.499 309.972 50.041 320 62.83 320h66.34c12.789 0 23.331-10.028 23.97-22.801l13.6-272C167.425 11.49 156.496 0 142.77 0H49.23C35.504 0 24.575 11.49 25.26 25.199z" class=""></path>
  </g>
  <g transform="scale(0.6) translate(272, 320)">
    <path fill="white" d="M250 280L224 305.374V268c0-11.046-8.954-20-20-20H100c-11.046 0-20 8.954-20 20v104c0 11.046 8.954 20 20 20h104c11.046 0 20-8.954 20-20v-37.374l52.687 52.674C286.704 397.318 304 390.28 304 375.986V264.011c0-14.311-17.309-21.319-27.313-11.314z" class=""></path>
  </g>
</g>
</svg> 