<svg version="1" xmlns="http://www.w3.org/2000/svg" width="682.667" height="682.667" viewBox="0 0 512.000000 512.000000"><path d="M237.2 1C128.4 9.4 37 85.2 9.1 190.1c-18.9 71-6.4 146.5 34.4 207.4C85.2 459.8 149.2 499.6 224 509.6c16.7 2.2 47.3 2.2 64 0 50.4-6.8 94.4-26.2 133.6-59.2 41.5-34.9 71.9-85.1 83.8-138.4 8-36.1 8-75.9 0-112C482.1 95.8 394.8 16.1 289 2.6 273.7.6 251.1 0 237.2 1zm60.5 72.2c5.9 1.5 11.6 7 13 12.7.9 3.2-.2 29.5-4.4 114.4-3 60.6-5.9 111.9-6.4 114-1.3 5-6.1 10.2-11.2 12.2-3.6 1.4-8.7 1.5-35.3 1.3l-31.1-.3-4.1-2.8c-2.4-1.5-5.1-4.5-6.3-6.9-2-3.9-2.4-9.8-7.7-115.7-3.1-62.4-5.2-113.3-4.8-115.5.9-4.9 6.8-11.2 12.1-13.1 5.3-1.9 79-2.2 86.2-.3zM291 359.5c5.4 2.8 6 4.7 6 18.7 0 9 .3 12.8 1.1 12.8.7 0 8.4-7.2 17.2-16 8.9-8.8 17.1-16.3 18.4-16.6 3.3-.9 6.9.3 9.3 2.8 1.9 2.1 2 3.4 2 39.8s-.1 37.7-2 39.8c-2.5 2.6-6.1 3.7-9.7 2.8-1.6-.5-8.8-7.1-18.6-17.1-8.8-9.1-16.3-16.2-16.8-15.9-.5.3-.9 6.2-.9 13.2 0 21 1.6 20.2-42.7 20.2-36.3 0-36.8-.1-40.7-5.3-2-2.8-2.1-3.9-2.1-37.7 0-33.8.1-34.9 2.1-37.7 3.9-5.2 4.4-5.3 40.7-5.3 28.1 0 34.3.3 36.7 1.5z"/></svg>